<?xml version="1.0" encoding="UTF-8" standalone="no"?>
<!-- Created with Inkscape (http://www.inkscape.org/) -->

<svg
   xmlns:dc="http://purl.org/dc/elements/1.1/"
   xmlns:cc="http://creativecommons.org/ns#"
   xmlns:rdf="http://www.w3.org/1999/02/22-rdf-syntax-ns#"
   xmlns:svg="http://www.w3.org/2000/svg"
   xmlns="http://www.w3.org/2000/svg"
   xmlns:sodipodi="http://sodipodi.sourceforge.net/DTD/sodipodi-0.dtd"
   xmlns:inkscape="http://www.inkscape.org/namespaces/inkscape"
   width="1052.3622"
   height="744.09448"
   id="svg2"
   version="1.1"
   inkscape:version="0.48.4 r9939"
   inkscape:export-filename="C:\Users\Céline\Documents\poly.png"
   inkscape:export-xdpi="153"
   inkscape:export-ydpi="153"
   sodipodi:docname="poly.svg">
  <defs
     id="defs4" />
  <sodipodi:namedview
     id="base"
     pagecolor="#ffffff"
     bordercolor="#666666"
     borderopacity="1.0"
     inkscape:pageopacity="0.0"
     inkscape:pageshadow="2"
     inkscape:zoom="0.72705821"
     inkscape:cx="526.18109"
     inkscape:cy="372.04724"
     inkscape:document-units="px"
     inkscape:current-layer="layer1"
     showgrid="false"
     showguides="true"
     inkscape:guide-bbox="true"
     inkscape:snap-bbox="true"
     inkscape:bbox-paths="true"
     inkscape:bbox-nodes="true"
     inkscape:snap-bbox-edge-midpoints="true"
     inkscape:snap-bbox-midpoints="true"
     inkscape:snap-global="false"
     inkscape:window-width="1366"
     inkscape:window-height="706"
     inkscape:window-x="-8"
     inkscape:window-y="-8"
     inkscape:window-maximized="1" />
  <metadata
     id="metadata7">
    <rdf:RDF>
      <cc:Work
         rdf:about="">
        <dc:format>image/svg+xml</dc:format>
        <dc:type
           rdf:resource="http://purl.org/dc/dcmitype/StillImage" />
        <dc:title></dc:title>
      </cc:Work>
    </rdf:RDF>
  </metadata>
  <g
     inkscape:label="Calque 1"
     inkscape:groupmode="layer"
     id="layer1"
     transform="translate(0,-308.2677)">
    <g
       id="g3893">
      <g
         id="g3862">
        <path
           style="fill:none;stroke:#000000;stroke-width:2;stroke-linecap:butt;stroke-linejoin:miter;stroke-opacity:1;stroke-miterlimit:4;stroke-dasharray:none"
           d="m 283.33357,93.527587 0,0 0,-4.126217 0,220.06491 356.23008,0 0,0"
           id="path2989"
           inkscape:connector-curvature="0"
           transform="translate(0,308.2677)" />
        <path
           style="fill:none;stroke:#000000;stroke-width:2;stroke-linecap:butt;stroke-linejoin:miter;stroke-opacity:1;stroke-miterlimit:4;stroke-dasharray:none"
           d="m 536.40822,177.92733 0,-89.025958 z"
           id="path3005"
           inkscape:connector-curvature="0"
           transform="translate(0,308.2677)" />
        <path
           style="fill:none;stroke:#000000;stroke-width:2;stroke-linecap:butt;stroke-linejoin:miter;stroke-opacity:1;stroke-miterlimit:4;stroke-dasharray:none"
           d="m 536.40822,177.92733 103.65543,0 0,0 0,-89.025958 0,0 0,0"
           id="path3007"
           inkscape:connector-curvature="0"
           transform="translate(0,308.2677)" />
        <path
           style="fill:none;stroke:#000000;stroke-width:2;stroke-linecap:butt;stroke-linejoin:miter;stroke-opacity:1;stroke-miterlimit:4;stroke-dasharray:none"
           d="m 385.1136,177.92733 -101.78003,0 0,131.53895 101.78003,0 z"
           id="path3009"
           inkscape:connector-curvature="0"
           transform="translate(0,308.2677)" />
        <path
           style="fill:#980000;fill-opacity:1;stroke:#008000;stroke-width:2;stroke-miterlimit:4;stroke-opacity:1;stroke-dasharray:none"
           id="path3042"
           d="m 323.89696,420.61802 c 10.84449,1.085 21.41717,3.90777 31.73649,7.41333 10.01665,3.53958 19.98298,7.73547 28.67931,14.08387 2.17852,1.59034 4.20459,3.39183 6.3069,5.08775 13.38393,11.80481 24.22338,26.12339 34.88547,40.46381 6.7631,9.6036 13.75031,19.03319 20.0964,28.93938 4.6635,7.89949 9.13678,15.92304 14.48217,23.3676 3.25684,4.53581 5.25071,6.81857 8.7682,11.09328 6.22144,6.96314 13.2157,13.11585 20.81142,18.41706 2.11741,1.1973 3.02302,1.86529 5.34453,2.57113 5.75122,1.74859 12.59093,2.28864 18.52045,2.9886 10.04632,0.99191 19.9819,2.77608 29.82159,5.04811 4.1148,1.02447 8.28838,1.68532 12.5139,1.89255 3.43362,0.10318 6.86948,0.0739 10.30409,0.0594 3.46687,-0.008 6.9338,-0.0341 10.40069,-0.0278 3.15163,-0.002 6.30324,-0.0136 9.45487,-0.0196 3.01555,-0.002 6.03116,10e-4 9.0467,0.015 3.47988,0.0142 6.95975,0.006 10.43963,-0.005 3.13491,0.0897 6.23206,0.77102 9.36298,1.07394 0,0 -15.97338,11.70524 -15.97338,11.70524 l 0,0 c -3.07083,-0.36902 -6.13149,-0.99086 -9.23464,-0.90822 -3.47579,-0.0107 -6.95154,-0.0187 -10.42733,-0.005 -3.02863,0.0134 -6.05733,0.0164 -9.08601,0.0146 -3.13589,-0.006 -6.27179,-0.0168 -9.40768,-0.0128 -3.46346,0.0146 -6.92701,0.004 -10.39045,0.025 -3.4674,0.008 -6.93925,0.0529 -10.40234,-0.15706 -4.20644,-0.36046 -8.32827,-1.26978 -12.40907,-2.37065 -9.6356,-2.4265 -19.39231,-4.26357 -29.28623,-5.14849 -6.23748,-0.68347 -13.32519,-0.99976 -19.31178,-3.10517 -2.28032,-0.80196 -3.46544,-1.69434 -5.51143,-2.96684 -7.52791,-5.56813 -14.38013,-12.04301 -20.505,-19.2161 -8.7608,-10.8493 -16.60802,-22.34828 -23.59488,-34.49878 -6.40093,-9.80424 -13.17021,-19.33979 -19.68511,-29.06268 -10.31432,-14.41166 -20.92129,-28.74337 -34.55331,-40.05683 -2.1235,-1.60755 -4.18003,-3.31368 -6.3705,-4.82266 -8.74735,-6.02595 -18.61328,-10.10481 -28.48997,-13.66992 -10.42177,-3.42843 -21.19462,-6.28353 -32.20917,-6.31514 0,0 15.8725,-11.89155 15.8725,-11.89155 z"
           inkscape:connector-curvature="0" />
        <path
           style="fill:none;stroke:#000000;stroke-width:2;stroke-linecap:butt;stroke-linejoin:miter;stroke-opacity:1;stroke-miterlimit:4;stroke-dasharray:none"
           d="m 281.95817,226.94194 163.67328,0 0,82.52434"
           id="path3816"
           inkscape:connector-curvature="0"
           transform="translate(0,308.2677)" />
        <path
           style="fill:none;stroke:#4600ff;stroke-width:2;stroke-linecap:butt;stroke-linejoin:miter;stroke-opacity:1;stroke-miterlimit:4;stroke-dasharray:none"
           d="m 280.58276,226.94194 165.04869,0 0,82.52434"
           id="path3818"
           inkscape:connector-curvature="0"
           transform="translate(0,308.2677)" />
        <path
           style="fill:none;stroke:#000000;stroke-width:2;stroke-linecap:butt;stroke-linejoin:miter;stroke-opacity:1;stroke-miterlimit:4;stroke-dasharray:none"
           d="m 282.83357,88.901372 c 0,0 0,0 0,0 z"
           id="path3826"
           inkscape:connector-curvature="0"
           transform="translate(0,308.2677)" />
        <text
           xml:space="preserve"
           style="font-size:40px;font-style:normal;font-weight:normal;line-height:125%;letter-spacing:0px;word-spacing:0px;fill:#000000;fill-opacity:1;stroke:none;font-family:Sans"
           x="412.39749"
           y="656.2453"
           id="text3828"
           sodipodi:linespacing="125%"><tspan
             sodipodi:role="line"
             id="tspan3830"
             x="412.39749"
             y="656.2453">100</tspan></text>
        <text
           xml:space="preserve"
           style="font-size:40px;font-style:normal;font-weight:normal;line-height:125%;letter-spacing:0px;word-spacing:0px;fill:#000000;fill-opacity:1;stroke:none;font-family:Sans"
           x="270.1702"
           y="656.11182"
           id="text3832"
           sodipodi:linespacing="125%"><tspan
             sodipodi:role="line"
             id="tspan3834"
             x="270.1702"
             y="656.11182">0</tspan></text>
        <text
           xml:space="preserve"
           style="font-size:40px;font-style:normal;font-weight:normal;line-height:125%;letter-spacing:0px;word-spacing:0px;fill:#000000;fill-opacity:1;stroke:none;font-family:Sans"
           x="372.73492"
           y="656.24536"
           id="text3836"
           sodipodi:linespacing="125%"><tspan
             sodipodi:role="line"
             id="tspan3838"
             x="372.73492"
             y="656.24536">f<tspan
   style="font-size:65.00091553%;baseline-shift:sub"
   id="tspan3840">1</tspan></tspan></text>
        <text
           xml:space="preserve"
           style="font-size:40px;font-style:normal;font-weight:normal;line-height:125%;letter-spacing:0px;word-spacing:0px;fill:#000000;fill-opacity:1;stroke:none;font-family:Sans"
           x="533.65741"
           y="658.35834"
           id="text3842"
           sodipodi:linespacing="125%"><tspan
             sodipodi:role="line"
             id="tspan3844"
             x="533.65741"
             y="658.35834">f<tspan
   style="font-size:65.00091553%;baseline-shift:sub"
   id="tspan3846">2</tspan></tspan></text>
        <text
           xml:space="preserve"
           style="font-size:40px;font-style:normal;font-weight:normal;line-height:125%;letter-spacing:0px;word-spacing:0px;fill:#000000;fill-opacity:1;stroke:none;font-family:Sans"
           x="626.31604"
           y="656.2453"
           id="text3848"
           sodipodi:linespacing="125%"><tspan
             sodipodi:role="line"
             id="tspan3850"
             x="626.31604"
             y="656.2453">f<tspan
   style="font-size:65.00091553%;baseline-shift:sub"
   id="tspan3852">3</tspan></tspan></text>
        <text
           xml:space="preserve"
           style="font-size:40px;font-style:normal;font-weight:normal;line-height:125%;letter-spacing:0px;word-spacing:0px;fill:#000000;fill-opacity:1;stroke:none;font-family:Sans"
           x="253.07466"
           y="549.58466"
           id="text3854"
           sodipodi:linespacing="125%"><tspan
             sodipodi:role="line"
             id="tspan3856"
             x="253.07466"
             y="549.58466">1</tspan></text>
        <text
           xml:space="preserve"
           style="font-size:40px;font-style:normal;font-weight:normal;line-height:125%;letter-spacing:0px;word-spacing:0px;fill:#000000;fill-opacity:1;stroke:none;font-family:Sans"
           x="253.07465"
           y="495.68991"
           id="text3858"
           sodipodi:linespacing="125%"><tspan
             sodipodi:role="line"
             id="tspan3860"
             x="253.07465"
             y="495.68991">3</tspan></text>
      </g>
      <text
         sodipodi:linespacing="125%"
         id="text3889"
         y="592.97668"
         x="623.05884"
         style="font-size:40px;font-style:normal;font-weight:normal;line-height:125%;letter-spacing:0px;word-spacing:0px;fill:#000000;fill-opacity:1;stroke:none;font-family:Sans"
         xml:space="preserve"><tspan
           y="592.97668"
           x="623.05884"
           id="tspan3891"
           sodipodi:role="line">p(x)</tspan></text>
    </g>
  </g>
</svg>
